<svg width="40" height="40" viewBox="0 0 40 40" fill="none" xmlns="http://www.w3.org/2000/svg">
  <defs>
    <linearGradient id="logoGradient" x1="0%" y1="0%" x2="100%" y2="100%">
      <stop offset="0%" style="stop-color:#ff6b6b;stop-opacity:1" />
      <stop offset="100%" style="stop-color:#00ff88;stop-opacity:1" />
    </linearGradient>
    <filter id="glow">
      <feGaussianBlur stdDeviation="2" result="coloredBlur"/>
      <feMerge> 
        <feMergeNode in="coloredBlur"/>
        <feMergeNode in="SourceGraphic"/>
      </feMerge>
    </filter>
  </defs>
  
  <!-- Background circle with glass effect -->
  <circle cx="20" cy="20" r="18" fill="rgba(255, 255, 255, 0.05)" stroke="rgba(255, 255, 255, 0.1)" stroke-width="1"/>
  
  <!-- 3D printer nozzle -->
  <path d="M15 8 L25 8 L23 12 L17 12 Z" fill="url(#logoGradient)" filter="url(#glow)"/>
  
  <!-- Print bed -->
  <rect x="10" y="28" width="20" height="3" rx="1.5" fill="rgba(255, 255, 255, 0.8)"/>
  
  <!-- Printing layers -->
  <rect x="16" y="25" width="8" height="2" rx="1" fill="url(#logoGradient)" opacity="0.9"/>
  <rect x="15" y="22" width="10" height="2" rx="1" fill="url(#logoGradient)" opacity="0.7"/>
  <rect x="14" y="19" width="12" height="2" rx="1" fill="url(#logoGradient)" opacity="0.5"/>
  
  <!-- Extruded filament -->
  <circle cx="20" cy="13" r="1" fill="#ff6b6b">
    <animate attributeName="opacity" values="0.5;1;0.5" dur="2s" repeatCount="indefinite"/>
  </circle>
  
  <!-- Support structure -->
  <path d="M12 15 L12 28 M28 15 L28 28" stroke="rgba(255, 255, 255, 0.3)" stroke-width="1"/>
  
  <!-- Corner accents -->
  <path d="M5 5 L10 5 L5 10 Z" fill="url(#logoGradient)" opacity="0.6"/>
  <path d="M35 5 L30 5 L35 10 Z" fill="url(#logoGradient)" opacity="0.6"/>
  <path d="M5 35 L10 35 L5 30 Z" fill="url(#logoGradient)" opacity="0.6"/>
  <path d="M35 35 L30 35 L35 30 Z" fill="url(#logoGradient)" opacity="0.6"/>
</svg>